<svg xmlns="http://www.w3.org/2000/svg" version="1.1" xmlns:xlink="http://www.w3.org/1999/xlink" xmlns:svgjs="http://svgjs.dev/svgjs" width="512" height="512"><svg id="SvgjsSvg1001" xmlns="http://www.w3.org/2000/svg" version="1.1" viewBox="0 0 512 512">
  <!-- Generator: Adobe Illustrator 29.2.1, SVG Export Plug-In . SVG Version: 2.1.0 Build 116)  -->
  <defs>
    <style>
      .st0 {
        fill: #2c52b6;
      }

      .st1 {
        fill: #fff;
      }
    </style>
  </defs>
  <circle class="st0" cx="256.5" cy="253.3" r="255"></circle>
  <path class="st1" d="M255.8,66.8l17,.9c33.4,2.8,70.3,17,96.8,37.4,1.9,1.5,10.3,8,10.4,9.6-7.8,123.6-104.3,228.7-226.6,247.2-.9.3-.4,1,0,1.5,2.2,3.2,12.4,10.8,16.1,13.3,93.2,66.1,219.7,7.8,234.3-103.3,14.3-8.9,27.8-19,40.8-29.5l.4,12.1-.9,17c-7.3,84.5-73.8,156.5-157.8,169.6-5.3.8-11,.8-16.1,2.1l-14.4.5-17-.9c-69.8-6.1-133.9-53.4-158.4-119.1,7.4.9,15,1.9,22.4,2.2,97.1,3.8,187-55.2,223.2-144.6,6.3-15.6,11.8-33.2,13-50.1-49.1-32.6-112.1-33.9-162.1-2.5-55.4,34.7-81.8,102.2-64.2,165.7-14.1-.4-28.3-1.4-42.1-4.5l-3.5-21.2c0-5-.6-10.1-.5-15.1,1.4-98.7,76.1-179.1,174.6-187.8l14.4-.5Z"></path>
</svg><style>@media (prefers-color-scheme: light) { :root { filter: none; } }
@media (prefers-color-scheme: dark) { :root { filter: none; } }
</style></svg>