<?xml version="1.0" encoding="UTF-8"?>
<svg id="Layer_1" xmlns="http://www.w3.org/2000/svg" version="1.1" viewBox="0 0 512 512">
  <!-- Generator: Adobe Illustrator 29.2.1, SVG Export Plug-In . SVG Version: 2.1.0 Build 116)  -->
  <defs>
    <style>
      .st0 {
        fill: #1a49b5;
      }
    </style>
  </defs>
  <path class="st0" d="M184.2,63S56.3,191.1,6.5,240.9c-4.2,4.1-6.3,9.6-6.3,15.1s2.1,10.9,6.3,15.1c49.8,49.9,177.7,177.8,177.7,177.8,4.1,4.1,9.5,6.2,15,6.2,5.4,0,10.9-2.1,15.1-6.3,8.3-8.3,8.4-21.8.1-30l-141.4-141.4h417.6c11.8,0,21.3-9.5,21.3-21.3s-9.5-21.3-21.3-21.3H72.9L214.4,93.2c8.2-8.2,8.2-21.6-.2-30-4.2-4.2-9.6-6.3-15.1-6.3-5.4,0-10.8,2-14.9,6.1Z"/>
</svg>