<?xml version="1.0" encoding="UTF-8"?>
<svg id="Layer_1" xmlns="http://www.w3.org/2000/svg" version="1.1" viewBox="0 0 800 800">
  <!-- Generator: Adobe Illustrator 29.2.0, SVG Export Plug-In . SVG Version: 2.1.0 Build 108)  -->
  <defs>
    <style>
      .st0 {
        fill: #1a49b5;
      }
    </style>
  </defs>
  <path class="st0" d="M533.1,511.1c-40.3-2.7-71.9-35.9-71.9-76.6s0-2.7,0-4v.2c0-1.3-.1-2.8-.1-4.3,0-40.6,31.7-73.8,71.7-76.2h.2c40.2,2.1,71.9,35.3,71.9,75.9s0,3.3-.2,4.9v-.2c0,1.3.1,2.9.1,4.5,0,40.6-31.7,73.7-71.7,76.1h-.2l.2-.2ZM267.7,511.1c-40.3-2.7-71.9-35.9-71.9-76.6s0-2.7,0-4v.2c0-1.3-.1-2.8-.1-4.3,0-40.6,31.6-73.8,71.7-76.2h.2c40.2,2.1,71.9,35.3,71.9,75.9s0,3.3-.1,4.9v-.2c0,1.3.1,2.8.1,4.3,0,40.6-31.6,73.8-71.7,76.2h-.2.1ZM676.9,146.2c-47-22.2-101.5-39.6-158.6-49.9l-3.9-.5h-.4c-1,0-1.7.5-2.1,1.3h0c-6.2,11-13,24.6-19.1,38.7l-1.2,3c-27.5-4.4-59.1-6.9-91.3-6.9s-63.8,2.5-94.7,7.4l3.4-.4c-7.2-16.8-14.1-30.4-21.6-43.7l1.1,2c-.4-.7-1.3-1.3-2.2-1.3s-.3,0-.4,0h0c-61,10.8-115.7,28.2-166.6,52.1l4-1.7c-.4.2-.9.5-1.1.9h0C46,254.6.6,388.5.6,533.1s1.3,48,3.7,71.5l-.2-3c0,.7.5,1.4,1.1,1.8h0c57,42.6,123.3,77,194.8,99.6l4.7,1.3h.7c.9,0,1.6-.4,2-1.1h0c14.3-19.2,27.8-40.9,39.5-63.7l1.3-2.7c.1-.3.3-.7.3-1.2,0-1.1-.7-2-1.7-2.3h0c-24.3-9.4-44.9-19.4-64.3-30.8l2,1.1c-.7-.4-1.3-1.3-1.3-2.2s.4-1.6,1.1-2h0c4.2-3.2,8.4-6.4,12.4-9.7.4-.3,1-.5,1.6-.5s.7,0,1.1.2h0c58.8,28.2,127.8,44.7,200.7,44.7s141.9-16.5,203.6-46l-2.9,1.2c.3-.2.6-.2,1.1-.2s1.2.2,1.6.5h0c3.9,3.3,8.2,6.6,12.4,9.7.6.4,1.1,1.2,1.1,2s-.5,1.7-1.2,2.2h0c-17.6,10.5-38.1,20.5-59.6,28.7l-2.8,1c-1,.3-1.7,1.3-1.7,2.3s0,.9.3,1.2h0c13.3,25.6,26.8,47.3,41.9,67.9l-1.1-1.5c.4.6,1.2,1.1,2,1.1s.5,0,.7,0h0c76.3-23.8,142.7-58.1,201.5-102.1l-1.7,1.3c.5-.4,1-1.1,1.1-1.8h0c2.3-20.9,3.6-45.2,3.6-69.7,0-144.3-45.6-277.9-123.2-387.2l1.4,2.1c-.2-.4-.5-.7-1.1-1h0l-.2.3Z"/>
</svg>