<?xml version="1.0" encoding="UTF-8"?>
<svg id="Layer_1" xmlns="http://www.w3.org/2000/svg" version="1.1" viewBox="0 0 800 800">
  <!-- Generator: Adobe Illustrator 29.2.0, SVG Export Plug-In . SVG Version: 2.1.0 Build 108)  -->
  <defs>
    <style>
      .st0 {
        fill: #1a49b5;
      }
    </style>
  </defs>
  <path class="st0" d="M524.8,504.1c-37.8-2.5-67.5-33.7-67.5-71.9s0-2.5,0-3.8v.2c0-1.2-.1-2.6-.1-4,0-38.1,29.8-69.3,67.3-71.5h.2c37.7,2,67.5,33.1,67.5,71.2s0,3.1-.2,4.6v-.2c0,1.2.1,2.7.1,4.2,0,38.1-29.8,69.2-67.3,71.4h-.2,0ZM275.7,504.1c-37.8-2.5-67.5-33.7-67.5-71.9s0-2.5,0-3.8v.2c0-1.2-.1-2.6-.1-4,0-38.1,29.7-69.3,67.3-71.5h.2c37.7,2,67.5,33.1,67.5,71.2s0,3.1-.1,4.6v-.2c0,1.2.1,2.6.1,4,0,38.1-29.7,69.3-67.3,71.5h-.2ZM659.8,161.6c-44.1-20.8-95.3-37.2-148.9-46.8l-3.7-.5c-.1,0-.3,0-.4,0-.9,0-1.6.5-2,1.2h0c-5.8,10.3-12.2,23.1-17.9,36.3l-1.1,2.8c-25.8-4.1-55.5-6.5-85.7-6.5s-59.9,2.3-88.9,6.9l3.2-.4c-6.8-15.8-13.2-28.5-20.3-41l1,1.9c-.4-.7-1.2-1.2-2.1-1.2s-.3,0-.4,0h0c-57.3,10.1-108.6,26.5-156.4,48.9l3.8-1.6c-.4.2-.8.5-1,.8h0c-71.4,101-114,226.7-114,362.4s1.2,45.1,3.5,67.1l-.2-2.8c0,.7.5,1.3,1,1.7h0c53.5,40,115.7,72.3,182.8,93.5l4.4,1.2c.2,0,.4,0,.7,0,.8,0,1.5-.4,1.9-1h0c13.4-18,26.1-38.4,37.1-59.8l1.2-2.5c.1-.3.3-.7.3-1.1,0-1-.7-1.9-1.6-2.2h0c-22.8-8.8-42.1-18.2-60.4-28.9l1.9,1c-.7-.4-1.2-1.2-1.2-2.1s.4-1.5,1-1.9h0c3.9-3,7.9-6,11.6-9.1.4-.3.9-.5,1.5-.5s.7,0,1,.2h0c55.2,26.5,120,42,188.4,42s133.2-15.5,191.1-43.2l-2.7,1.1c.3-.2.6-.2,1-.2.5,0,1.1.2,1.5.5h0c3.7,3.1,7.7,6.2,11.6,9.1.6.4,1,1.1,1,1.9s-.5,1.6-1.1,2.1h0c-16.5,9.9-35.8,19.2-55.9,26.9l-2.6.9c-.9.3-1.6,1.2-1.6,2.2s0,.8.3,1.1h0c12.5,24,25.2,44.4,39.3,63.7l-1-1.4c.4.6,1.1,1,1.9,1s.5,0,.7,0h0c71.6-22.3,133.9-54.5,189.1-95.8l-1.6,1.2c.5-.4.9-1,1-1.7h0c2.2-19.6,3.4-42.4,3.4-65.4,0-135.4-42.8-260.8-115.6-363.4l1.3,2c-.2-.4-.5-.7-1-.9h0Z"/>
</svg>