<?xml version="1.0" encoding="UTF-8"?>
<svg id="Layer_1" xmlns="http://www.w3.org/2000/svg" version="1.1" viewBox="0 0 1005 240">
  <!-- Generator: Adobe Illustrator 29.2.0, SVG Export Plug-In . SVG Version: 2.1.0 Build 108)  -->
  <defs>
    <style>
      .st0 {
        fill: #1a49b5;
      }
    </style>
  </defs>
  <path class="st0" d="M892.4,232.9c-64.7,0-111.2-47.3-111.2-112.9S827.7,7.1,892.4,7.1s111.6,46.9,111.6,112.9-46.5,112.9-111.6,112.9M892.4,201.7c45.2,0,76-33.9,76-81.7s-30.8-81.7-76-81.7-75.6,33.9-75.6,81.7,30.8,81.7,75.6,81.7M651.8,232.9c-69.1,0-106.4-54.3-106.4-112.9S582.7,7.1,651.8,7.1s93,28.7,99.5,77.3h-34.3c-4.3-26.5-31.7-46-64.7-46-47.8,0-70.8,36.9-70.8,81.7s23.5,81.7,70.8,81.7,56.9-16.5,64.7-43h33.9c-7.4,44.7-43.4,74.3-99,74.3M478.2,159.1h35.2c-7.4,44.7-46,73.8-100.3,73.8s-108.2-51.7-108.2-114.2S344.8,7.1,409.1,7.1s102.1,44.3,102.1,102.5-.4,12.2-.9,15.2h-171.1c2.6,45.2,32.6,77.3,73.8,77.3s58.2-15.6,65.2-43M409.1,36.6c-36.9,0-61.7,21.7-68.2,60.4h134.7c-2.6-36.9-27.4-60.4-66.5-60.4"/>
  <path class="st0" d="M189.1,21.8C169.7,8.2,146.1.3,120.6.3,54.5.3.9,53.9.9,120s1.4,20.9,4,30.7c9.4.7,18.7.3,27.7-1.2-3.1-9.3-4.8-19.2-4.8-29.5,0-51.3,41.6-92.8,92.8-92.8s29.3,3.6,41.8,9.9c-3.1,67.9-53.5,123.4-119,134.5-3.5.8-7.4.9-11,1.4-6.5.6-12.9.7-19.4.4,4.3,8.3,9.6,16.2,15.7,23.3,22,26.2,55,42.9,91.9,42.9,66.1,0,119.7-53.6,119.7-119.7s-.5-13-1.5-19.3c-7.4,9-16,17.1-25.5,24-2.4,49.1-43,88.1-92.7,88.1s-40.1-6.9-55.5-18.5c63.9-17.7,112.6-71.8,122.6-138.5h0c2.1-11.2,2.6-22.6,1.5-34"/>
</svg>