
<svg xmlns="http://www.w3.org/2000/svg" fill="none" viewBox="0 0 1005 240" class="w-[76px] cursor-pointer *:duration-150 hover:opacity-70 duration-150 *:fill-foreground-100"><path fill="#14192C" d="M892.446 232.94c-64.721 0-111.199-47.346-111.199-112.936 0-66.024 46.478-112.936 111.199-112.936 65.155 0 111.634 46.912 111.634 112.936 0 65.59-46.479 112.936-111.634 112.936m0-31.274c45.174 0 76.014-33.881 76.014-81.662 0-47.78-30.84-81.661-76.014-81.661-44.74 0-75.581 33.88-75.581 81.661s30.841 81.662 75.581 81.662M651.811 232.94c-69.065 0-106.421-54.296-106.421-112.936S582.746 7.068 651.811 7.068c49.083 0 92.955 28.669 99.47 77.318h-34.315c-4.344-26.496-31.709-46.043-64.721-46.043-47.781 0-70.802 36.921-70.802 81.661s23.456 81.662 70.802 81.662c33.012 0 56.902-16.506 64.721-43.003h33.881c-7.385 44.74-43.437 74.277-99.036 74.277M478.193 159.098h35.183c-7.384 44.74-46.043 73.842-100.339 73.842-64.721 0-108.158-51.69-108.158-114.239 0-64.286 39.962-111.633 104.249-111.633 63.852 0 102.077 44.306 102.077 102.511 0 4.779-.435 12.163-.869 15.203H339.195c2.606 45.175 32.577 77.318 73.842 77.318 35.619 0 58.206-15.637 65.156-43.002M409.128 36.605c-36.921 0-61.68 21.719-68.196 60.378h134.654c-2.606-36.922-27.365-60.378-66.458-60.378"></path><path fill="#1D53BD" d="M189.111 21.811C169.696 8.236 146.069.272 120.582.272 54.459.272.855 53.876.855 120c0 10.614 1.381 20.906 3.974 30.705 9.394.746 18.699.316 27.74-1.189-3.11-9.272-4.793-19.197-4.793-29.516 0-51.256 41.55-92.807 92.806-92.807 15.048 0 29.26 3.582 41.829 9.939-3.098 67.875-53.477 123.423-118.972 134.479-3.53.771-7.415.93-11.015 1.422a145 145 0 0 1-19.424.438 125.4 125.4 0 0 0 15.713 23.31c21.963 26.25 54.966 42.946 91.869 42.946 66.124 0 119.728-53.604 119.728-119.727 0-6.564-.529-13.004-1.545-19.281a136.4 136.4 0 0 1-25.492 23.964c-2.44 49.08-43.006 88.123-92.691 88.123-20.832 0-40.06-6.863-55.548-18.453 63.867-17.731 112.615-71.801 122.577-138.542l.019.02a117.1 117.1 0 0 0 1.481-34.02"></path></svg>