<?xml version="1.0" encoding="UTF-8"?>
<svg id="Layer_1" xmlns="http://www.w3.org/2000/svg" version="1.1" viewBox="0 0 800 800">
  <!-- Generator: Adobe Illustrator 29.2.0, SVG Export Plug-In . SVG Version: 2.1.0 Build 108)  -->
  <defs>
    <style>
      .st0 {
        fill: #1a49b5;
      }
    </style>
  </defs>
  <path class="st0" d="M399.2.1C178.9.1-1.5,180.1-1.5,401.6s146.7,366.7,338.2,396.7v-280.5h-101.8v-116.2h101.8v-88.6c0-100.6,59.7-155.9,151.5-155.9s89.3,7.6,89.3,7.6v98.9h-50.5c-49.6,0-65.3,30.9-65.3,62.5v75.4h111.4l-18,116.2h-93.4v280.5c94.4-14.9,180.4-63.1,242.5-135.8,62-72.7,96.1-165.3,95.8-260.9C800,180,619.7,0,399.3,0h-.1Z"/>
</svg>