<?xml version="1.0" encoding="UTF-8"?>
<svg id="Layer_1" xmlns="http://www.w3.org/2000/svg" version="1.1" viewBox="0 0 24 24">
  <!-- Generator: Adobe Illustrator 29.2.1, SVG Export Plug-In . SVG Version: 2.1.0 Build 116)  -->
  <defs>
    <style>
      .st0 {
        fill: #1a49b5;
      }
    </style>
  </defs>
  <path class="st0" d="M23.9,19.3c0-.6-.4-1.2-1-1.2H1c-.5,0-1,.5-1,1.2s.4,1.2,1,1.2h22.1c.5,0,1-.5,1-1.2h-.1ZM23.9,11.6c0-.6-.4-1.2-1-1.2H1c-.5,0-1,.5-1,1.2s.4,1.2,1,1.2h22.1c.5,0,1-.5,1-1.2h-.1ZM23.9,3.8c0-.6-.4-1.2-1-1.2H1c-.5,0-1,.5-1,1.2s.4,1.2,1,1.2h22.1c.5,0,1-.5,1-1.2h-.1Z"/>
</svg>