<?xml version="1.0" encoding="UTF-8"?>
<svg id="Layer_1" xmlns="http://www.w3.org/2000/svg" version="1.1" viewBox="0 0 24 24">
  <!-- Generator: Adobe Illustrator 29.2.0, SVG Export Plug-In . SVG Version: 2.1.0 Build 108)  -->
  <defs>
    <style>
      .st0 {
        fill: #1a49b5;
      }
    </style>
  </defs>
  <path class="st0" d="M22,16.8c0-.4-.3-.8-.8-.8H2.8c-.4,0-.8.3-.8.8s.3.8.8.8h18.5c.4,0,.8-.3.8-.8ZM22,11.8c0-.4-.3-.8-.8-.8H2.8c-.4,0-.8.3-.8.8s.3.8.8.8h18.5c.4,0,.8-.3.8-.8ZM22,6.8c0-.4-.3-.8-.8-.8H2.8c-.4,0-.8.3-.8.8s.3.8.8.8h18.5c.4,0,.8-.3.8-.8Z"/>
</svg>