<?xml version="1.0" encoding="UTF-8"?>
<svg id="Layer_1" xmlns="http://www.w3.org/2000/svg" version="1.1" viewBox="0 0 512 512">
  <!-- Generator: Adobe Illustrator 29.2.0, SVG Export Plug-In . SVG Version: 2.1.0 Build 108)  -->
  <defs>
    <style>
      .st0 {
        fill: #58a4ff;
      }
    </style>
  </defs>
  <path class="st0" d="M264.9,6.1l22.4,2.1c44,5.3,92,25.7,126.1,53.9,2.5,2.1,13.2,11,13.3,13.2-16.2,162.9-148.7,297.1-311.1,315.7-1.2.3-.5,1.3,0,2,2.8,4.3,15.9,14.8,20.6,18.4,120,91.8,289.7,20.8,314.4-125.3,19.3-11.1,37.6-23.8,55.4-37.1v16l-2.1,22.4c-13.6,111.2-104.9,203.3-216.5,216.5-7,.8-14.6.5-21.4,2.1h-19l-22.4-2.1c-91.9-11.4-174.3-76.9-203.6-164.9,9.7,1.5,19.7,3.2,29.5,4,128,9.6,249.6-64,301.6-180.3,9.1-20.3,17.2-43.3,19.6-65.5-63.2-45.4-146.5-50.1-214-11-74.8,43.3-112.9,131-92.7,215.8-18.6-1.2-37.3-3.1-55.4-7.9l-3.6-28.1c.3-6.6-.3-13.4,0-20C12.8,115.6,115.3,13,245.9,6.1h19Z"/>
</svg>